<?xml version="1.0" encoding="UTF-8"?>
<svg preserveAspectRatio="xMinYMin meet" viewBox="0 0 397 575" version="1.1" xmlns="http://www.w3.org/2000/svg" xmlns:xlink="http://www.w3.org/1999/xlink">
    <!-- Generator: Sketch 44.1 (41455) - http://www.bohemiancoding.com/sketch -->
    <title>jk_outline_3</title>
    <desc>Created with Sketch.</desc>
    <defs></defs>
    <g id="Page-1" stroke="none" stroke-width="1" fill="none" fill-rule="evenodd">
        <g id="fullStack" transform="translate(-522.000000, -225.000000)">
            <g id="jk_outline_3" transform="translate(523.000000, 225.000000)">
                <polygon id="Fill-1" fill="#3498DB" points="93.8537521 20.9731786 54.3508433 52.2531473 45.9701426 71.5030672 0.481019038 105.192729 0.481019038 130.459209 16.0451773 156.92593 12.4503943 187.005656 19.6369062 231.522056 35.1980103 302.505176 42.9128973 391.961589 42.381468 420.417459 57.9425721 481.774084 75.8981621 537.11722 97.4424268 559.980145 135.754201 574.413748 200.393103 574.413748 253.065685 544.337091 322.493559 486.584262 336.860474 401.161399 338.057717 349.428199 347.632607 300.101622 351.224335 255.585223 384.744084 235.131991 384.744084 165.349113 371.574411 105.192729 348.82985 58.2697066 298.551754 35.4067814 249.47701 13.7533075 157.298466 0.516877135"></polygon>
                <polygon id="Stroke-2" stroke="#000000" points="19.6359899 231.522056 12.4525323 187.005656 16.0442611 156.92593 0.483156972 130.459209 0.483156972 105.192729 45.9722806 71.5030672 54.349927 52.2531473 93.8528359 20.9731786 157.29755 0.519946809 249.47304 13.7533075 298.553892 35.4098511 348.831987 58.2697066 371.573495 105.192729 384.740113 165.349113 384.740113 235.131991 351.223419 255.585223 347.63169 300.098552 338.056801 349.428199 336.859558 401.164469 322.495697 486.587332 253.064769 544.337091 200.392187 574.416818 135.753285 574.416818 97.4445647 559.977076 75.8972459 537.12029 57.9416559 481.774084 42.3805517 420.414389 42.9150352 391.964659 35.1970941 302.508246"></polygon>
                <polygon id="Fill-4" fill="#C0392B" points="35.1977049 156.926851 68.714399 110.003828 104.625579 82.3337948 170.467833 71.5039881 249.47365 76.3172355 286.582073 85.9406607 309.326635 119.630323 309.326635 161.740098 303.340421 180.990018 302.143178 194.223379 323.690496 235.132912 329.676711 264.006257 329.676711 321.756017 309.326635 355.445679 268.626483 397.555454 229.123575 444.478477 194.406583 490.195118 176.450993 504.634861 132.159113 493.805054 107.023119 476.961758 74.7006138 428.835423 45.9698372 403.572014 35.1977049 362.66248 35.1977049 332.585823 35.1977049 295.289295 28.0142472 255.586144 28.0142472 199.036626"></polygon>
                <polygon id="Stroke-5" stroke="#000000" points="35.1977049 156.926851 68.714399 110.003828 104.625579 82.3337948 170.467833 71.5039881 249.47365 76.3172355 286.582073 85.9406607 309.326635 119.630323 309.326635 161.740098 303.340421 180.990018 302.143178 194.223379 323.690496 235.132912 329.676711 264.006257 329.676711 321.756017 309.326635 355.445679 268.626483 397.555454 229.123575 444.478477 194.406583 490.195118 176.450993 504.634861 132.159113 493.805054 107.023119 476.961758 74.7006138 428.835423 45.9698372 403.572014 35.1977049 362.66248 35.1977049 332.585823 35.1977049 295.289295 28.0142472 255.586144 28.0142472 199.036626"></polygon>
                <polygon id="Fill-6" fill="#2ECC71" points="374.567824 247.462561 384.741335 247.462561 395.217211 267.314137 395.217211 288.068196 389.829618 320.554547 384.741335 341.308606 379.955417 364.770118 369.180231 387.930801 358.405044 387.930801 346.435669 387.930801 337.367775 379.176094 342.226994 327.94632 348.604145 288.068196 346.435669 262.804787 363.194016 248.279094"></polygon>
                <polygon id="Stroke-7" stroke="#000000" points="374.567824 247.462561 384.741335 247.462561 395.217211 267.314137 395.217211 288.068196 389.829618 320.554547 384.741335 341.308606 379.955417 364.770118 369.180231 387.930801 358.405044 387.930801 346.435669 387.930801 337.367775 379.176094 342.226994 327.94632 348.604145 288.068196 346.435669 262.804787 363.194016 248.279094"></polygon>
                <polyline id="Stroke-9" stroke="#000000" points="347.631996 300.09978 363.196154 300.09978 366.29005 324.162947 363.196154 331.382819 347.631996 334.09027 352.121657 344.014523 363.196154 353.039362"></polyline>
                <polyline id="Stroke-10" stroke="#000000" points="356.961634 276.338362 363.195238 264.609141 372.773181 257.38927 380.851517 257.38927 384.742557 266.865351 384.742557 293.482486 384.742557 330.481256"></polyline>
            </g>
        </g>
    </g>
</svg>
