<?xml version="1.0" encoding="UTF-8"?>
<svg width="398px" height="577px" viewBox="0 0 398 577" version="1.1" xmlns="http://www.w3.org/2000/svg" xmlns:xlink="http://www.w3.org/1999/xlink">
    <!-- Generator: Sketch 44.1 (41455) - http://www.bohemiancoding.com/sketch -->
    <title>jk_outline_1</title>
    <desc>Created with Sketch.</desc>
    <defs></defs>
    <g id="Page-1" stroke="none" stroke-width="1" fill="none" fill-rule="evenodd">
        <g id="ui/ux" transform="translate(-521.000000, -224.000000)">
            <g id="jk_outline_1" transform="translate(522.000000, 225.000000)">
                <polygon id="Fill-1" fill="#FFFF00" points="93.910177 20.7541897 54.2839042 52.0598593 45.8800951 71.3255957 0.248913169 105.042939 0.248913169 130.330178 15.8586132 156.818645 12.2556677 186.923086 19.4584949 231.476062 35.0712587 302.517505 42.8102385 392.047419 42.2771497 420.523597 57.8868497 481.933707 75.8985134 537.322316 97.5131225 560.204026 135.938414 574.649488 200.782241 574.649488 253.619314 544.548119 323.264005 486.747837 337.675787 401.25786 338.876769 349.479081 348.48156 300.111976 352.084505 255.559 385.708933 235.085891 385.708933 165.248749 372.498132 105.042939 349.682541 58.081362 299.247432 35.1996518 250.016368 13.5283865 157.553023 0.281080549"></polygon>
                <polygon id="Stroke-2" stroke="#000000" points="19.4600268 231.476062 12.2541358 186.923086 15.8570813 156.818645 0.247381304 130.330178 0.247381304 105.042939 45.8785633 71.3255957 54.2823723 52.0598593 93.9117089 20.7541897 157.554555 0.284152744 250.014837 13.5283865 299.248964 35.202724 349.684073 58.081362 372.496601 105.042939 385.707401 165.248749 385.707401 235.088963 352.082973 255.559 348.483092 300.111976 338.875237 349.479081 337.674255 401.25786 323.265537 486.75091 253.617782 544.548119 200.783773 574.65256 135.939945 574.65256 97.5146544 560.204026 75.8969815 537.325388 57.8853178 481.933707 42.2756178 420.523597 42.8117704 392.050491 35.0697268 302.520577"></polygon>
                <polygon id="Fill-4" fill="#1ABC9C" points="35.0703396 156.81926 68.694767 109.857683 104.718094 82.164915 170.762904 71.3262101 250.015449 76.1434123 287.239759 85.7747444 310.05535 119.492087 310.05535 161.636462 304.05044 180.902198 302.852522 194.146432 324.464068 235.089578 330.468977 263.986646 330.468977 321.783856 310.05535 355.501199 269.228095 397.645573 229.601822 444.60715 194.776413 490.361353 176.767813 504.81296 132.337613 493.974255 107.120058 477.11712 74.6966124 428.954315 45.879176 403.667076 35.0703396 362.72393 35.0703396 332.622561 35.0703396 295.295388 27.8644486 255.559615 27.8644486 198.963634"></polygon>
                <polygon id="Stroke-5" stroke="#000000" points="35.0703396 156.81926 68.694767 109.857683 104.718094 82.164915 170.762904 71.3262101 250.015449 76.1434123 287.239759 85.7747444 310.05535 119.492087 310.05535 161.636462 304.05044 180.902198 302.852522 194.146432 324.464068 235.089578 330.468977 263.986646 330.468977 321.783856 310.05535 355.501199 269.228095 397.645573 229.601822 444.60715 194.776413 490.361353 176.767813 504.81296 132.337613 493.974255 107.120058 477.11712 74.6966124 428.954315 45.879176 403.667076 35.0703396 362.72393 35.0703396 332.622561 35.0703396 295.295388 27.8644486 255.559615 27.8644486 198.963634"></polygon>
                <polygon id="Fill-6" fill="#B0C4DE" points="375.500281 247.429357 385.708626 247.429357 396.214153 267.297244 396.214153 288.071428 390.809735 320.581398 385.708626 341.352511 380.904699 364.833299 370.095862 388.013012 359.287026 388.013012 347.280271 388.013012 338.18406 379.251111 343.058453 327.979245 349.455519 288.071428 347.280271 262.784189 364.090953 248.246561"></polygon>
                <polygon id="Stroke-7" stroke="#000000" points="375.500281 247.429357 385.708626 247.429357 396.214153 267.297244 396.214153 288.071428 390.809735 320.581398 385.708626 341.352511 380.904699 364.833299 370.095862 388.013012 359.287026 388.013012 347.280271 388.013012 338.18406 379.251111 343.058453 327.979245 349.455519 288.071428 347.280271 262.784189 364.090953 248.246561"></polygon>
                <polyline id="Stroke-9" stroke="#000000" points="348.48156 300.111361 364.09126 300.111361 367.197881 324.1943 364.09126 331.417031 348.48156 334.126707 352.985242 344.062187 364.09126 353.091369"></polyline>
                <polyline id="Stroke-10" stroke="#000000" points="357.840333 276.328884 364.093404 264.590026 373.698195 257.364222 381.804823 257.364222 385.708013 266.848089 385.708013 293.487094 385.708013 330.516263"></polyline>
            </g>
        </g>
    </g>
</svg>